<svg xmlns="http://www.w3.org/2000/svg"
  xmlns:xlink="http://www.w3.org/1999/xlink" version="1.1" width="150" height="150" viewBox="0 0 150 150">
  <path d="M11,124.7L11,25.3C11,9.6729,23.7573,4,32.3333,4L124.778,4C132.62099999999998,4,139,10.3687,139,18.2L139,117.6L32.4187,117.6C29.1333,117.685,25.2222,118.977,25.2222,124.7C25.2222,130.423,29.1333,131.715,32.4187,131.8L139,131.8L139,146L32.3333,146C23.7573,146,11,140.327,11,124.7Z" fill-rule="evenodd" fill="#FF9595" fill-opacity="1"/>
  <path d="M61.114599999999996,44.413L70.4599,31.97883Q71.3127,30.825,72.4881,30.287501Q73.6634,29.75,75,29.75Q76.3366,29.75,77.5119,30.287499Q78.6873,30.825,79.5401,31.97525L88.8854,44.413L103.2904,49.315Q105.2039,49.96,106.2359,51.4829Q107.2715,53.0094,107.2715,54.8512Q107.2715,55.700500000000005,107.0207,56.539Q106.7698,57.3775,106.2037,58.1479L96.7616,70.9512L97.1199,84.6753Q97.20949999999999,87.20519999999999,95.45009999999999,88.9359Q93.69069999999999,90.66669999999999,91.3543,90.66669999999999L89.72749999999999,90.46600000000001L75,86.1266L60.2725,90.46600000000001Q59.828199999999995,90.6452,59.4125,90.6559Q58.993300000000005,90.66669999999999,58.6457,90.66669999999999Q56.2628,90.66669999999999,54.5248,88.9359Q52.7869,87.20519999999999,52.8801,84.6789L53.2384,70.86160000000001L43.81784,58.1479Q43.248086,57.3703,42.997253,56.524699999999996Q42.75,55.679,42.75,54.8333Q42.75,53.0202,43.81425,51.4578Q44.87492,49.899100000000004,46.78125,49.243300000000005L61.114599999999996,44.413Z" fill="#FFFFFF" fill-opacity="1"/>
</svg>
