<svg xmlns="http://www.w3.org/2000/svg"
  xmlns:xlink="http://www.w3.org/1999/xlink" version="1.1" viewBox="0 0 150 150">
  <path d="M11,124.7L11,25.3C11,9.6729,23.7573,4,32.3333,4L124.778,4C132.62099999999998,4,139,10.3687,139,18.2L139,117.6L32.4187,117.6C29.1333,117.685,25.2222,118.977,25.2222,124.7C25.2222,130.423,29.1333,131.715,32.4187,131.8L139,131.8L139,146L32.3333,146C23.7573,146,11,140.327,11,124.7Z" fill-rule="evenodd" fill="#92A1FF" fill-opacity="1"/>
  <path d="M89.09205131835938,58.31902836425781C84.81505131835938,53.20568836425781,82.67865131835937,50.64902536425781,80.21735131835938,51.039025064257814C77.76035131835937,51.433357364257816,76.61205131835938,54.51868836425781,74.31535131835938,60.689358364257814L73.71735131835938,62.28399836425781C73.06735131835937,64.03899836425781,72.73805131835937,64.9143983642578,72.10105131835937,65.55999836425781C71.46835131835937,66.20569836425781,70.59305131835937,66.54799836425781,68.85105131835937,67.23269836425781L67.26068131835937,67.85239836425781C61.12034131835937,70.25739836425781,58.048013318359374,71.46199836425781,57.697011018359376,73.91899836425782C57.350344318359376,76.37599836425781,59.95034131835938,78.46469836425781,65.15468131835938,82.63339836425781L66.49801131835937,83.71669836425781C67.98005131835937,84.89969836425782,68.72105131835937,85.49339836425781,69.14565131835937,86.30369836425781C69.57905131835938,87.11399836425781,69.64405131835937,88.05439836425782,69.77835131835937,89.93069836425781L69.90405131835938,91.63799836425781C70.38065131835937,98.23769836425781,70.62335131835937,101.53969836425782,72.86365131835937,102.66639836425782C75.10405131835938,103.79299836425781,77.86435131835938,101.99469836425781,83.38065131835938,98.4066983642578L84.80635131835938,97.47499836425781C86.37505131835937,96.45669836425782,87.15935131835937,95.94539836425781,88.05635131835938,95.79799836425781C88.95765131835938,95.6549983642578,89.87635131835938,95.89339836425782,91.70065131835938,96.36999836425781L93.36905131835937,96.80339836425782C99.80405131835937,98.4759983642578,103.02365131835938,99.3166983642578,104.76135131835937,97.5529983642578C106.49465131835937,95.7893983642578,105.59765131835937,92.59569836425781,103.80365131835939,86.19969836425781L103.33565131835937,84.5529983642578C102.82865131835938,82.73299836425781,102.57305131835938,81.82299836425781,102.69865131835937,80.92599836425781C102.82865131835938,80.02469836425782,103.32705131835937,79.23599836425781,104.31935131835937,77.64999836425781L105.22935131835938,76.21139836425782C108.72635131835938,70.6429983642578,110.47265131835937,67.86099836425781,109.30265131835938,65.64669836425782C108.13705131835937,63.432398364257814,104.82635131835937,63.25039836425781,98.20065131835938,62.894998364257816L96.48465131835937,62.799698364257814C94.60405131835938,62.69999836425781,93.65935131835937,62.647998364257816,92.84035131835938,62.23639836425781C92.01705131835938,61.82469836425781,91.41035131835937,61.09669836425781,90.19705131835937,59.640698364257815L89.09205131835938,58.31902836425781Z" fill="#FFFFFF" fill-opacity="1"/>
  <g style="opacity:0.5;">
    <path d="M67.76767021484375,30.42531191894531C73.47027021484375,23.60465191894531,76.32167021484375,20.194317918945313,79.59767021484376,20.718650718945312C82.87367021484374,21.242983918945313,84.40767021484375,25.355321918945315,87.47137021484374,33.58429191894531L88.26427021484375,35.711991918945316C89.13527021484376,38.05199191894531,89.57297021484375,39.221991918945314,90.41797021484375,40.07999191894531C91.26727021484375,40.942291918945315,92.42867021484375,41.397291918945314,94.75567021484375,42.30729191894531L96.87467021484375,43.13929191894531C105.06467021484374,46.345991918945316,109.15967021484374,47.94929191894531,109.62337021484375,51.22529191894532C110.09127021484375,54.50569191894531,106.62037021484375,57.28329191894531,99.68267021484375,62.84729191894531L97.88867021484376,64.28599191894531C95.91697021484376,65.86769191894531,94.92897021484376,66.65629191894531,94.35697021484376,67.73969191894531C93.78937021484376,68.82299191894532,93.69827021484375,70.07099191894531,93.51637021484375,72.57129191894532L93.35167021484375,74.85069191894532C92.71027021484375,83.65169191894532,92.38967021484375,88.05429191894531,89.40397021484375,89.55369191894532C86.41397021484374,91.05729191894531,82.73937021484375,88.66099191894531,75.38137021484374,83.87269191894532L73.47897021484374,82.6332919189453C71.39037021484376,81.27269191894531,70.34597021484375,80.59669191894531,69.14567021484375,80.40169191894532C67.94537021484375,80.20669191894531,66.72767021484376,80.52299191894531,64.28797021484375,81.15999191894531L62.064970214843754,81.73629191894531C53.48497021484375,83.9722919189453,49.190660214843746,85.08599191894531,46.87666021484375,82.73729191894532C44.56266021484375,80.38869191894531,45.75866021484375,76.1246919189453,48.15499021484375,67.60529191894531L48.77032021484375,65.39969191894531C49.45066021484375,62.97729191894531,49.79299021484375,61.768291918945316,49.62399021484375,60.56799191894531C49.45066021484375,59.36769191894531,48.787660214843754,58.314691918945314,47.46166021484375,56.199991918945315L46.25699021484375,54.28029191894531C41.58999021484375,46.85729191894531,39.25865021484375,43.14369191894531,40.80998621484375,40.196991918945315C42.36999021484375,37.241691918945314,46.78565021484375,37.00329191894531,55.62127021484375,36.522291918945314L57.90497021484375,36.40099191894531C60.41827021484375,36.26669191894531,61.67067021484375,36.19729191894531,62.76697021484375,35.64699191894531C63.85897021484375,35.09669191894531,64.66927021484375,34.13029191894531,66.28997021484375,32.18899191894531L67.76767021484375,30.42531191894531Z" fill="#FFFFFF" fill-opacity="1"/>
  </g>
</svg>
